<svg width="443" height="443" viewBox="0 0 443 443" fill="none" xmlns="http://www.w3.org/2000/svg">
<circle cx="221.185" cy="221.185" r="221.185" fill="#FFBD30"/>
<circle cx="220.44" cy="253.208" r="144.478" fill="#FFD859"/>
<path d="M214.351 175.887C216.054 236.268 217.435 285.217 186.032 286.103C149.799 287.125 148.418 238.176 146.715 177.795C145.012 117.414 166.715 67.8138 179.865 67.4429C193.015 67.0719 212.648 115.506 214.351 175.887Z" fill="#FEF7E4"/>
<g style="mix-blend-mode:multiply">
<path d="M209.165 214.192C207.391 166.732 205.953 128.257 181.107 129.186C152.44 130.258 153.878 168.733 155.653 216.193C157.427 263.654 177.129 301.445 187.533 301.056C197.937 300.667 210.94 261.653 209.165 214.192Z" fill="#FEC0AD"/>
</g>
<path d="M304.563 175.381C301.645 235.518 299.279 284.269 267.797 282.741C231.473 280.978 233.839 232.227 236.758 172.09C239.676 111.953 265.184 64.325 278.367 64.9649C291.55 65.6047 307.482 115.244 304.563 175.381Z" fill="#FEF7E4"/>
<g style="mix-blend-mode:multiply">
<path d="M294.338 211.956C297.195 167.23 299.511 130.972 276.098 129.476C249.082 127.75 246.765 164.008 243.908 208.735C241.051 253.461 255.945 290.818 265.75 291.445C275.555 292.071 291.48 256.683 294.338 211.956Z" fill="#FEC0AD"/>
</g>
<path d="M350.022 299.976C350.022 350.143 292.339 387.334 221.184 387.334C150.028 387.334 92.3457 350.143 92.3457 299.976C92.3457 249.809 150.028 220.493 221.184 220.493C292.339 220.493 350.022 249.809 350.022 299.976Z" fill="#FEF7E4"/>
<g style="mix-blend-mode:multiply">
<path d="M103.469 287.229C129.064 287.229 149.813 307.979 149.813 333.574C149.813 346.361 144.634 357.938 136.26 366.323C109.341 350.611 92.3457 327.206 92.3457 299.976C92.3457 295.956 92.7173 292.069 93.4355 288.321C96.6665 287.608 100.023 287.229 103.469 287.229Z" fill="#FF7474"/>
</g>
<g style="mix-blend-mode:multiply">
<path d="M337.045 287.229C341.186 287.229 345.2 287.775 349.02 288.794C349.68 292.396 350.022 296.125 350.022 299.976C350.022 327.597 332.534 351.283 304.941 366.995C296.164 358.562 290.701 346.707 290.701 333.574C290.701 307.979 311.45 287.229 337.045 287.229Z" fill="#FF7474"/>
</g>
<ellipse cx="196.771" cy="273.108" rx="10.6055" ry="10.6055" transform="rotate(1.55526 196.771 273.108)" fill="black"/>
<ellipse cx="243.205" cy="274.369" rx="10.6055" ry="10.6055" transform="rotate(1.55526 243.205 274.369)" fill="black"/>
<path d="M209.015 291.052C209.015 291.052 211.997 298.453 219.63 298.66C227.263 298.868 230.43 291.633 230.43 291.633" stroke="black" stroke-width="7.4473" stroke-linecap="round"/>
</svg>
