<svg width="435" height="557" viewBox="0 0 435 557" fill="none" xmlns="http://www.w3.org/2000/svg">
<path d="M205.834 200.266C208.707 302.134 211.036 384.714 158.057 386.208C96.9279 387.933 94.5987 305.352 91.7254 203.484C88.8522 101.616 125.467 17.9372 147.652 17.3115C169.838 16.6857 202.96 98.3976 205.834 200.266Z" fill="#FEF7E4"/>
<g style="mix-blend-mode:multiply">
<path d="M197.084 264.89C194.09 184.82 191.664 119.911 149.748 121.478C101.383 123.286 103.81 188.196 106.804 268.265C109.797 348.335 143.036 412.093 160.589 411.436C178.141 410.78 200.078 344.96 197.084 264.89Z" fill="#FEC0AD"/>
</g>
<path d="M358.028 199.411C353.104 300.867 349.112 383.114 296.001 380.536C234.718 377.562 238.71 295.315 243.634 193.859C248.558 92.4024 291.592 12.0506 313.833 13.1301C336.074 14.2095 362.953 97.9544 358.028 199.411Z" fill="#FEF7E4"/>
<g style="mix-blend-mode:multiply">
<path d="M340.776 261.116C345.597 185.659 349.505 124.489 310.003 121.966C264.425 119.054 260.518 180.224 255.697 255.681C250.877 331.138 276.005 394.163 292.547 395.22C309.089 396.276 335.956 336.573 340.776 261.116Z" fill="#FEC0AD"/>
</g>
<path d="M434.722 409.614C434.722 494.25 337.406 556.993 217.361 556.993C97.3158 556.993 3.53847e-07 494.25 2.16929e-07 409.614C8.00109e-08 324.978 97.3158 275.519 217.361 275.519C337.406 275.519 434.722 324.978 434.722 409.614Z" fill="#FEF7E4"/>
<g style="mix-blend-mode:multiply">
<path d="M18.7646 388.109C61.9463 388.109 96.9521 423.115 96.9521 466.296C96.9521 487.869 88.2142 507.4 74.0859 521.546C28.672 495.039 1.27855e-07 455.553 4.07673e-08 409.614C2.71429e-05 402.829 0.625735 396.271 1.83789 389.947C7.28845 388.744 12.9524 388.109 18.7646 388.109Z" fill="#FF7474"/>
</g>
<g style="mix-blend-mode:multiply">
<path d="M412.829 388.109C419.815 388.109 426.586 389.026 433.031 390.745C434.145 396.823 434.72 403.114 434.72 409.614C434.72 456.213 405.217 496.173 358.665 522.681C343.858 508.454 334.641 488.452 334.641 466.296C334.641 423.115 369.647 388.109 412.829 388.109Z" fill="#FF7474"/>
</g>
<ellipse cx="176.173" cy="364.284" rx="17.8924" ry="17.8923" transform="rotate(1.55525 176.173 364.284)" fill="black"/>
<ellipse cx="254.512" cy="366.411" rx="17.8924" ry="17.8923" transform="rotate(1.55525 254.512 366.411)" fill="black"/>
<path d="M196.831 394.558C196.831 394.558 201.862 407.044 214.74 407.394C227.618 407.744 232.96 395.539 232.96 395.539" stroke="black" stroke-width="12.5642" stroke-linecap="round"/>
</svg>
