<svg width="443" height="443" viewBox="0 0 443 443" fill="none" xmlns="http://www.w3.org/2000/svg">
<circle cx="221.185" cy="221.185" r="221.185" fill="#079120"/>
<circle cx="223.419" cy="253.208" r="144.478" fill="#2A7422"/>
<path d="M202.435 198.721C212.128 258.343 219.985 306.677 188.977 311.718C153.198 317.534 145.341 269.2 135.649 209.578C125.956 149.955 140.893 97.916 153.878 95.8051C166.863 93.6942 192.743 139.098 202.435 198.721Z" fill="#DFFDE6"/>
<g style="mix-blend-mode:multiply">
<path d="M202.374 237.376C194.323 190.569 187.797 152.625 163.295 156.839C135.022 161.702 141.548 199.646 149.598 246.452C157.649 293.259 182.186 328.105 192.447 326.34C202.708 324.576 210.424 284.182 202.374 237.376Z" fill="#ABE9C0"/>
</g>
<path d="M306.434 224.807C288.564 282.509 274.078 329.285 244.069 319.992C209.443 309.268 223.929 262.492 241.799 204.79C259.668 147.089 277.173 159.648 289.74 163.54C302.307 167.432 324.303 167.105 306.434 224.807Z" fill="#DFFDE6"/>
<g style="mix-blend-mode:multiply">
<path d="M287.263 260.304C300.173 214.599 310.638 177.547 286.712 170.789C259.105 162.991 248.639 200.043 235.729 245.748C222.819 291.454 229.942 333.473 239.961 336.303C249.981 339.133 274.353 306.01 287.263 260.304Z" fill="#ABE9C0"/>
</g>
<path d="M351.512 299.976C351.512 350.144 293.829 387.334 222.674 387.334C151.519 387.334 93.8359 350.144 93.8359 299.976C93.8359 249.809 151.519 220.493 222.674 220.493C293.829 220.493 351.512 249.809 351.512 299.976Z" fill="#DFFDE6"/>
<g style="mix-blend-mode:multiply">
<path d="M104.958 287.229C130.553 287.229 151.303 307.979 151.303 333.574C151.303 346.361 146.123 357.937 137.749 366.322C110.831 350.611 93.836 327.206 93.8359 299.977C93.8359 295.956 94.2076 292.07 94.9258 288.321C98.1564 287.608 101.513 287.23 104.958 287.229Z" fill="#A2EE89"/>
</g>
<g style="mix-blend-mode:multiply">
<path d="M338.536 287.229C342.676 287.229 346.69 287.775 350.509 288.794C351.169 292.396 351.511 296.125 351.511 299.977C351.511 327.598 334.024 351.283 306.431 366.995C297.655 358.562 292.191 346.707 292.191 333.574C292.191 307.979 312.94 287.229 338.536 287.229Z" fill="#A2EE89"/>
</g>
<ellipse cx="198.26" cy="273.108" rx="10.6055" ry="10.6055" transform="rotate(1.55526 198.26 273.108)" fill="black"/>
<ellipse cx="244.695" cy="274.369" rx="10.6055" ry="10.6055" transform="rotate(1.55526 244.695 274.369)" fill="black"/>
<path d="M210.504 298.949C210.504 298.949 213.487 291.547 221.12 291.34C228.753 291.133 233.1 291.34 233.1 291.34" stroke="black" stroke-width="7.4473" stroke-linecap="round"/>
<g filter="url(#filter0_d_162_119)">
<path d="M322.992 199.216C343.128 256.167 331.744 286.814 322.992 290.404C314.241 293.994 291.247 277.764 271.112 220.813C250.976 163.863 266.613 159.32 274.061 156.94C281.508 154.56 302.857 142.266 322.992 199.216Z" fill="#DFFDE6"/>
</g>
<defs>
<filter id="filter0_d_162_119" x="261.223" y="154.185" width="72.9946" height="141.905" filterUnits="userSpaceOnUse" color-interpolation-filters="sRGB">
<feFlood flood-opacity="0" result="BackgroundImageFix"/>
<feColorMatrix in="SourceAlpha" type="matrix" values="0 0 0 0 0 0 0 0 0 0 0 0 0 0 0 0 0 0 127 0" result="hardAlpha"/>
<feOffset dy="5.21311"/>
<feComposite in2="hardAlpha" operator="out"/>
<feColorMatrix type="matrix" values="0 0 0 0 0.624473 0 0 0 0 0.289852 0 0 0 0 0.746154 0 0 0 0.13 0"/>
<feBlend mode="normal" in2="BackgroundImageFix" result="effect1_dropShadow_162_119"/>
<feBlend mode="normal" in="SourceGraphic" in2="effect1_dropShadow_162_119" result="shape"/>
</filter>
</defs>
</svg>
