<svg width="443" height="443" viewBox="0 0 443 443" fill="none" xmlns="http://www.w3.org/2000/svg">
<circle cx="221.185" cy="221.185" r="221.185" fill="#D51990"/>
<circle cx="220.44" cy="253.208" r="144.478" fill="#F04EB5"/>
<path d="M214.351 175.887C216.054 236.268 217.435 285.217 186.032 286.103C149.799 287.125 148.418 238.176 146.715 177.795C145.012 117.414 166.715 67.8138 179.865 67.4429C193.015 67.0719 212.648 115.506 214.351 175.887Z" fill="#FFB4E4"/>
<g style="mix-blend-mode:multiply">
<path d="M209.165 214.193C207.391 166.732 205.953 128.258 181.107 129.187C152.44 130.258 153.878 168.733 155.653 216.193C157.427 263.654 177.129 301.445 187.533 301.056C197.937 300.667 210.94 261.653 209.165 214.193Z" fill="#F5B8E8"/>
</g>
<path d="M304.563 175.38C301.645 235.518 299.279 284.268 267.797 282.741C231.473 280.978 233.839 232.227 236.758 172.089C239.676 111.952 265.184 64.3246 278.367 64.9644C291.55 65.6042 307.482 115.243 304.563 175.38Z" fill="#FFB4E4"/>
<g style="mix-blend-mode:multiply">
<path d="M294.338 211.956C297.195 167.229 299.511 130.971 276.098 129.476C249.082 127.75 246.765 164.008 243.908 208.734C241.051 253.46 255.945 290.818 265.75 291.444C275.555 292.07 291.48 256.682 294.338 211.956Z" fill="#F5B8E8"/>
</g>
<path d="M350.022 299.976C350.022 350.143 292.339 387.334 221.184 387.334C150.028 387.334 92.3457 350.143 92.3457 299.976C92.3457 249.809 150.028 220.493 221.184 220.493C292.339 220.493 350.022 249.809 350.022 299.976Z" fill="#FFB4E4"/>
<g style="mix-blend-mode:multiply">
<path d="M103.469 287.229C129.064 287.229 149.813 307.979 149.813 333.574C149.813 346.361 144.634 357.938 136.26 366.323C109.341 350.612 92.3458 327.206 92.3457 299.976C92.3457 295.956 92.7174 292.069 93.4355 288.321C96.6665 287.608 100.023 287.229 103.469 287.229Z" fill="#EBB4FB"/>
</g>
<g style="mix-blend-mode:multiply">
<path d="M337.045 287.229C341.186 287.229 345.2 287.775 349.02 288.794C349.68 292.396 350.022 296.125 350.022 299.976C350.022 327.598 332.534 351.283 304.941 366.995C296.164 358.562 290.701 346.707 290.701 333.574C290.701 307.979 311.45 287.229 337.045 287.229Z" fill="#EBB4FB"/>
</g>
<ellipse cx="196.771" cy="273.108" rx="10.6055" ry="10.6055" transform="rotate(1.55526 196.771 273.108)" fill="black"/>
<ellipse cx="243.205" cy="274.369" rx="10.6055" ry="10.6055" transform="rotate(1.55526 243.205 274.369)" fill="black"/>
<path d="M221.11 278.815C222.888 278.863 224.701 279.869 226.143 281.908C227.585 283.948 228.521 286.874 228.43 290.203C228.34 293.531 227.247 296.403 225.696 298.361C224.145 300.319 222.281 301.224 220.502 301.176C218.724 301.128 216.912 300.122 215.47 298.083C214.028 296.044 213.092 293.117 213.182 289.789C213.272 286.46 214.366 283.589 215.917 281.63C217.468 279.673 219.332 278.767 221.11 278.815Z" stroke="black" stroke-width="5.95784"/>
</svg>
