<svg width="443" height="443" viewBox="0 0 443 443" fill="none" xmlns="http://www.w3.org/2000/svg">
<circle cx="221.185" cy="221.185" r="221.185" fill="#860D09"/>
<circle cx="220.44" cy="253.208" r="144.478" fill="#CF2020"/>
<path d="M217.723 170.964C220.128 231.322 222.077 280.251 190.687 281.502C154.468 282.945 152.518 234.016 150.113 173.658C147.708 113.301 168.833 63.4522 181.978 62.9285C195.123 62.4047 215.318 110.607 217.723 170.964Z" fill="#FB9587"/>
<g style="mix-blend-mode:multiply">
<path d="M212.983 209.328C210.657 161.891 208.771 123.436 183.938 124.654C155.285 126.059 157.171 164.514 159.497 211.95C161.823 259.387 181.962 296.947 192.362 296.437C202.761 295.927 215.309 256.764 212.983 209.328Z" fill="#F49F9F"/>
</g>
<path d="M291.019 172.349C289.592 232.541 288.434 281.335 256.925 280.588C220.568 279.726 221.725 230.931 223.153 170.74C224.58 110.549 248.899 62.3037 262.094 62.6166C275.289 62.9296 292.447 112.158 291.019 172.349Z" fill="#FB9587"/>
<g style="mix-blend-mode:multiply">
<path d="M281.703 209.167C283.451 164.384 284.868 128.079 261.424 127.164C234.374 126.109 232.957 162.413 231.209 207.196C229.461 251.979 245.277 288.956 255.094 289.339C264.912 289.723 279.955 253.95 281.703 209.167Z" fill="#F49F9F"/>
</g>
<path d="M350.022 299.976C350.022 350.143 292.339 387.334 221.184 387.334C150.028 387.334 92.3457 350.143 92.3457 299.976C92.3457 249.809 150.028 220.493 221.184 220.493C292.339 220.493 350.022 249.809 350.022 299.976Z" fill="#FB9587"/>
<g style="mix-blend-mode:multiply">
<path d="M103.469 287.229C129.064 287.229 149.813 307.979 149.813 333.574C149.813 346.361 144.634 357.938 136.26 366.323C109.341 350.612 92.3457 327.206 92.3457 299.976C92.3457 295.956 92.7173 292.069 93.4355 288.321C96.6665 287.608 100.023 287.229 103.469 287.229Z" fill="#EB9574"/>
</g>
<g style="mix-blend-mode:multiply">
<path d="M337.045 287.229C341.186 287.229 345.2 287.775 349.02 288.794C349.68 292.396 350.022 296.125 350.022 299.976C350.022 327.598 332.534 351.283 304.941 366.995C296.164 358.562 290.701 346.707 290.701 333.574C290.701 307.979 311.45 287.229 337.045 287.229Z" fill="#EB9574"/>
</g>
<path d="M208.755 272.443C207.446 275.45 204.995 277.814 201.943 279.014C198.89 280.214 195.486 280.153 192.479 278.844C189.472 277.534 187.108 275.083 185.908 272.031C184.708 268.979 184.769 265.575 186.078 262.568L197.417 267.505L208.755 272.443Z" fill="black"/>
<path d="M233.708 271.969C234.857 275.042 237.18 277.533 240.165 278.893C243.15 280.254 246.554 280.373 249.627 279.224C252.7 278.075 255.19 275.752 256.551 272.767C257.911 269.782 258.03 266.378 256.881 263.305L245.295 267.637L233.708 271.969Z" fill="black"/>
<path d="M204.8 294.913C204.8 294.913 211.997 291.547 219.63 291.34C227.263 291.133 236.823 294.913 236.823 294.913" stroke="black" stroke-width="7.4473" stroke-linecap="round"/>
</svg>
